<?xml version="1.0"?><svg xmlns="http://www.w3.org/2000/svg" version="1.2" baseProfile="tiny" width="1080" height="1080" viewBox="-41.3583 3.8358 8.961199999999998 5.647100000000001" stroke-linecap="round" stroke-linejoin="round"><g id="UF26UF" transform="scale(0.0001,-0.0001)"><path id="26" d="M-413583,-87076l148,-144l91,-57l135,-5l79,24l79,-16l101,-81l167,2l83,43l70,91l253,31l-24,69l148,72l204,-48l73,30l116,-41l96,-6l344,41l107,28l195,-10l-29,-69l-85,-65l-36,-102l-22,-145l44,-93l116,-70l18,-104l52,-5l26,-98l213,-39l36,-45l89,71l110,-41l224,-1l113,-228l-64,-263l101,-86l113,100l96,48l105,-6l107,60l73,-50l109,-24l19,-112l126,-30l154,78l97,18l63,-141l120,-91l15,-79l51,-45l14,-181l116,-158l22,-107l149,-78l50,-246l103,-62l-11,-263l53,-150l124,-150l22,-207l58,-56l33,-152l-5,-101l45,-70l-19,-108l78,-33l34,-91l57,-60l146,-6l20,-52l124,32l119,-60l64,19l-9,-136l73,7l73,-45l106,-16l102,-98l124,-71l97,-13l151,46l74,-136l103,-79l-47,-133l22,-137l-72,-72l-51,-147l15,-42l-127,-191l69,-123l-27,-134l91,-22l-71,-191l-141,-40l-74,-46l4,-92l-118,-98l-193,93l-46,-96l-76,-18l-48,-70l141,-122l50,-97l-41,-99l32,-64l-83,-179l40,-122l-6,-196l-217,-130l47,-99l-5,-64l-66,-132l-3,-73l177,89l276,-21l70,-29l138,-89l201,-95l291,-66l163,-72l127,-19l146,61l90,72l121,39l148,-12l169,90l106,156l34,163l101,110l116,27l94,51l135,-14l133,-54l61,-53l100,-13l35,72l105,99l11,63l134,289l85,116l127,46l83,-36l51,-72l134,-93l199,-65l150,17l175,171l51,94l-35,154l48,175l69,117l66,186l95,118l73,238l17,205l103,352l40,104l-11,145l-55,132l-5,112l66,293l79,229l56,121l90,114l163,133l89,33l154,-23l148,-71l123,-81l124,-134l130,-81l35,-98l79,-47l154,14l144,-38l100,82l182,80l92,82l151,77l118,151l231,33l68,-26l121,23l187,3l69,-13l196,62l103,17l126,70l64,106l219,265l106,104l97,171l75,91l106,67l144,291l10,65l-41,86l-19,197l-48,62l-171,315l-14,136l22,86l75,132l62,38l239,55l181,13l248,47l164,-52l148,-4l133,100l277,151l260,-50l116,12l151,-18l218,147l-48,279l43,115l-42,129l-43,211l-107,310l10,163l32,33l279,35l149,-23l234,42l81,-20l193,63l143,107l123,38l119,136l112,24l193,82l76,86l329,75l96,36l149,108l37,127l54,61l166,-1l77,46l30,73l88,93l362,93l153,-50l77,-97l117,-110l247,-15l79,17l193,-23l68,-32l112,-130l26,-70l-1,-127l93,-187l155,-98l60,-113l-48,-113l12,-148l-25,-64l25,-153l112,-212l58,-50l109,18l168,-25l89,38l109,9l135,138l108,-143l128,-57l417,-75l377,-116l217,-17l93,-30l99,-107l129,-92l113,-49l105,-106l115,-214l104,-6l146,-108l87,3l157,84l118,26l314,36l167,57l132,-6l478,-33l101,-57l223,-186l32,-52l318,-275l226,-84l106,-91l81,-195l47,-212l1,-157l7,-175l37,-112l148,-244l168,-107l127,-42h95l113,67l138,227l20,75l-6,152l19,171l-6,242l38,127l138,241l130,194l66,67l186,78l107,-9l287,-71l100,-48l216,-139l110,-164l-35,-238l-60,-122l-128,-109l-99,-40l-90,-85l-84,-142l-4,-83l58,-124l105,-214l153,-126l42,-70l349,-254l307,-116l149,8l176,124l235,239l222,105l167,4l61,-51l5,-62l141,-126l131,-224l-3,-109l-137,-144l-173,-84l-52,-110l59,-103l128,-32l14,-72l-89,-55l-64,-97l27,-241l58,-74l70,-51l72,-104l100,-82l32,-72l54,-218l0,-61l-74,-99l370,-734l92,-322l37,-71l170,173l175,156l114,10l121,46l60,62l78,138l84,87l10,125l1,77l77,116l47,126l87,42l198,156l13,44l218,213l97,21l165,-36l91,66l125,-12l150,43l37,90l137,-5l126,38l58,-31l151,76l74,234l96,42l67,88l33,139l89,52l50,121l79,88l227,201l6,82l62,47l126,32l67,-52l58,157l-44,92l124,38l141,115l71,153l69,64l129,457l-74,63l132,177l0,85l-52,116l159,115l113,10l120,99l128,132l77,-15l105,81l52,-120l37,-7l51,-171l83,-47l20,-71l95,-107l22,-94l157,-142l46,-136l5,-90l81,-39l11,-68l175,-189l-121,-19l-113,-51l-24,-77l106,15l49,-96l241,115l3,-69l179,-24l15,-87l97,33l185,126l144,191l234,-32l165,15l99,96l129,10l78,-35l62,-49l147,29l56,-39l65,-183l83,-14l158,-96l370,-91l147,11l204,-135l5,-80l42,11l328,-269l242,-280l67,-113l102,8l68,-80l-4,-71l74,-95l71,-39l143,-279l38,-37l119,-65l195,-200l39,-70l-36,-44l120,-141l24,-178l32,-46l-47,-52l35,-55l182,165l139,56l384,-227l-9,-58l-75,-78l-8,-139l48,-100l219,76l125,80l134,192l83,22l175,-77l126,-99l108,-109l101,-146l-47,-156l43,-201l23,101l78,-75l152,8l80,-16l59,-82l56,-154l94,-133l238,-67l241,-220l90,-17l97,56l64,74l-64,88l2,113l143,101l14,73l-59,53l54,176l77,135l158,149l81,-24l100,72l68,77l55,2l207,-92l71,-105l37,-4l392,82l350,89l621,-215l105,-34l18,-44l170,-124l115,-29l43,34l99,-17l101,-125l97,-49l56,52l127,-141l151,60l69,-9l180,42l-2,97l-76,122l26,169l186,100l536,174l-8,24l84,38l-7,48l55,140l111,-36l136,45l72,118l235,154l85,-47l-11,-92l91,-37l84,90l40,-27l112,-17l158,84l102,-59l98,42l67,21l-52,111l30,38l125,-56l113,62l61,154l265,130l35,-17l173,79l95,3l74,258l-62,141l28,75l-63,74l2,87l111,-2l147,32l45,-41l140,171l6,131l116,2l75,63l-6,52l49,149l28,19l68,-15l94,53l61,-30l93,35l124,-22l107,30l26,39l111,21l61,58l97,102l-23,85l95,103l-79,111l-124,44l-39,63l3,194l57,50l216,34l186,84l89,153l95,103l306,69l69,4l115,-44l95,-6l170,90l42,-12l135,48l72,-20l15,70l114,31l81,67l182,10l79,170l50,63l104,-11l48,81l92,-88l115,42h146l118,-129l41,-7l79,38l105,-17l36,130l151,-30l128,127l75,-34l63,-99l55,-26l-79,-184l46,-66l-39,-89l98,-86l123,-20l125,-91l120,53l131,24l96,47l134,-18l82,58l112,38l97,4l81,69l22,68l89,6l199,10l87,57l96,112l73,-8l111,53l13,50l116,84l123,37l27,74l75,26l202,117l70,-60l150,103l107,-18l113,-97l137,21l15,63l99,38l116,-228l96,-31l256,35l149,5l90,-123l54,5l438,-109l631,-159l76,16l172,-64l101,-58l178,40l259,-86l110,44l122,-26l147,-6l152,-122l33,-111l13,66l71,78l25,138l116,234l-41,196l41,178l55,77l70,153l117,83l32,87l-33,117l24,78l96,70l80,117l-34,178l19,75l86,178l-113,86l25,42l38,92l134,132l-28,82l26,99l158,308l68,101l32,60l9,120l52,55l51,143l112,106l158,-10l-19,76l56,61l1,85l-36,160l15,85l51,68l-24,113l78,225l109,166l34,188l197,436l-92,48l-44,63l133,179l53,105l117,-24l42,69l-9,64l-86,41l-7,195l67,165l-89,75l53,188l15,151l57,140l142,168l-32,77l108,133l18,108l-17,155l89,306l132,308l137,259l49,154l165,385l-36,38l49,124l83,60l85,98l55,170l-15,48l104,316l52,166l26,168l-9,131l-38,86l4,195l-94,154l-26,250l-46,-10l-39,71l20,97l-21,119l80,69l17,247l122,331l-3,165l-64,91l-31,126l14,130l-166,127l59,59l76,-22l119,334l140,205l21,92l-62,80l-102,187l-84,187l-19,115l-57,102l52,53l-47,43l-152,47l-42,16l-94,-100l-198,116l-83,-87l-60,80l-158,-47l-57,78l-97,55l-68,-15l-111,-76l-102,-12l-86,177l-97,114l-51,18l-9,79l-51,111l19,127l41,69l-12,73l-173,85l-119,100l-150,177l-185,80l-149,111l-75,79l-211,-26l-164,-41l-196,38l-73,49l-189,43l-183,45l-87,-79l-99,-20l-89,102l-171,68l-319,61l-158,-51l-158,-78l-157,-137l-131,-76l-50,32l-101,-55l-67,47l-21,-87l-6,-75l-91,8l-100,-22l40,-107l-44,-64l-99,-15l-55,22l-76,-83l-95,-7l-67,-64l-176,-68l-31,-78l-118,-38l-97,36l-33,102l-127,72l-34,-92l-97,2l-126,-138l-129,-20l-59,-57l-91,-241l21,-45l-73,-50l-32,-140l-43,3l-47,-100l15,-92l-73,-196l-101,-106l14,-80l80,-16l67,-62l29,-76l-75,-36l-59,-141l13,-45l108,-138l-74,-51l-76,-104l-133,-18l-117,-40l-123,33l-158,78l-98,-41l-104,9l-116,-91l-18,-61l-102,-126l-138,-112l-115,-53l-107,3l-124,-62l-42,-42l-113,138l-114,-18l-68,-116l-78,-21l-151,-1l-66,-42l-42,-94l-117,8l-86,-43l-130,-117l-93,-20l-104,-14l-250,-78l-254,21l-116,-35l-98,15l-97,-49l8,-119l-28,-85l-79,-52l-65,-89l-112,-36l-191,73l-71,1l-78,-49l-156,27l-150,-47l-74,-112l-96,33l-52,-40l-20,-99l-51,10l-183,26l-120,136l-84,29l-85,-74l-57,19l-79,141l-49,41l-251,25l-100,-11l-144,-62l-83,16l-166,26l-190,-21l-211,-2l-144,-65l-64,74l-22,126l-101,63l-106,-59l-191,-153l-79,-111l30,-82l89,-27l23,-104l-133,-123l-102,-17l-76,11l-141,127l-168,96l-114,19l-73,-28l-162,-2l-263,33l-103,-65l-191,50l-68,-28l-80,-37l-166,-17l-60,-113l17,-63l-26,-164l18,-172l-36,-61l30,-135l-72,-137l-89,-79l-5,-82l-150,17l-91,-31l-97,-70l-66,84l-58,12l-69,-51l-135,54l-186,121l-50,12l-155,29l-197,-58l-65,-107l57,-154l-1,-54l-74,-107l58,-50l-26,-79l-101,9l-256,93l-10,-71l-59,-50l-33,-80l-5,-126l-47,-43l14,-163l-28,-227l15,-261l-10,-56l-124,-51l-126,-82l-49,-94l83,-15l27,-100l107,-19l91,-97l-7,-82l-117,-88l-249,-34l-287,-175l69,-149l-100,10l-67,-33l-191,70l-30,-54l69,-52l-51,-109l-169,1l-92,-33l-34,-158l-81,-48l-138,56l-124,9l-65,3l-115,-59l-67,-99l-118,-29l-190,-87l-184,-55l-175,-132l-168,-52l-123,-123l-147,-167l-192,-41l-48,-35l-3,-137l-72,-81l-57,-13l-178,31l-132,-56l-127,71l-167,62l-73,63l-124,172l-179,22l-175,-40l-65,61l16,208l141,81l-144,111l-90,-93l-105,-25l-100,82l-125,164l-32,176l72,75l6,86l-82,17l-147,-35l-190,68l-32,117l124,87l-76,111l54,114l90,25l16,71l-43,87l-9,91l41,121l-29,94l-102,141l-13,133l97,161l-12,114l-22,143l-86,122l-149,3l-89,56l-41,83l-51,1l7,223l-152,87l-94,-45l-42,-71l19,-93h-215l-59,34l-110,-10l-55,22l-139,-38l-144,67l-115,-49l-91,24l-279,-119l-3,46l-168,1l54,65l43,141l-25,58l155,56l44,-17l213,105l-24,126l34,137l43,37l163,3l103,61l153,139l177,101l-17,149l-44,40l30,81l89,29l124,-8l31,85l-54,147l-123,-16l-32,41l135,59l-4,64l76,26l56,-26l194,78l65,77l85,5l123,-95l122,79l65,125l-50,68l53,106l81,81l47,88l-117,165l4,121l-43,105l-65,84l-131,137l-27,115l-110,152l-73,55l-28,168l51,115l96,108l42,159l154,224l101,87l164,108l83,125l105,83l122,33l115,89l153,56l94,-8l66,32l95,96l106,7l175,69l5,3l146,71l73,-68l191,141l-12,67l-101,30l14,79l-92,98l-74,13l-25,86l-80,48l-24,63l91,35l-31,58l-84,21l23,67l100,120l-119,178l-55,4l-189,80l-32,-19l-142,-39l-55,151l-127,100l-117,43l-46,-26l-119,53l-78,4l-64,69l-73,-27l-96,117l-122,-32l-110,62l-4,120l-84,104l-198,149l-175,34l-85,52l-115,122l-265,-3l-146,-1l-67,-45l-63,-95l-257,-11l-142,13l-70,-69l-169,-218l-49,-42l76,-141l-230,-155l-133,-61l-97,-20l-127,6l-74,-36l-100,88l-63,-38l-157,-43l-184,30l-301,-68l-21,-63l105,-183l6,-57l-77,-39l-110,-202l-99,-84l14,-54l-75,-65l-57,-89l-6,-169l-51,-77l-95,-53l-143,-15l-149,-93l-149,-100l-231,-89l-16,-106l-85,-73l-105,-66l-109,32l-81,-14l-64,73l-208,-122l-56,-128l-243,-22l-35,-109l34,-80l-107,-109l-112,5l-64,-173l-66,-3l-42,-118l-101,-102l25,-63l69,-25l60,-78l-38,-184l-64,-84l-104,-39l-62,96l-39,98l-69,41l-2,85l-76,90l-153,-3l-23,-84l-64,-93l-93,-31l-120,-4l-68,28l-193,-75l-112,-126l-45,-109l-77,-82l-168,-71l-59,-73l90,-155l-188,41l-83,-37l-10,-104l-45,-63l-162,-111l-44,-152l-51,-4l-52,-96l-128,-114l-142,47l-55,-60l-104,-1l-48,12l-26,109l-44,11l-174,160l-97,17l-214,-188l-85,-54l-58,-101l18,-111l-22,-119l103,-143l-40,-64l-77,-45l-62,25l-139,8l-89,44l-101,3l-39,36l-93,131l-20,101l-124,124l-204,35l-105,-100l-289,-177l-91,-31l-92,-97l-136,-56l-31,-47l-184,-4l-61,30l-124,-61l-179,112l-43,91l-13,165l-35,59l68,163l-76,131l-135,-25l111,120l35,74l-87,61l-50,106l39,122l-147,226l-180,-13l-103,166l-151,-142l-1,-43l-121,-106l-194,-57l9,-69l-87,-104l-181,5l-66,95l-113,25l-116,-1l-69,-128l-76,-23l-189,-15l-53,-41l-8,-112l-39,-15l-161,22l-84,-53l-135,13l-46,43l-147,-76l-61,-1l-171,91l-33,-58l-93,-9l-41,123l-99,25l-2,125l-63,113l-121,93l3,108l-161,95l-1,85l-93,5l7,85l-129,111l-63,-30l-135,177l-33,78l-83,17l-104,113l-97,1l-25,-50h-61l-85,-70l-96,-145l-10,-119l-117,6l-61,37l-212,-59l-70,-86l-37,24l-197,-7l-75,40l-45,-135l84,-84l8,-107l-70,-174l-61,-48l-180,-8l-77,49l-159,40l-101,-118l-16,-241l-134,-31l-44,48l-164,12l3,-92l-123,-1l-120,-50l-14,-126l-54,-100l66,-102l-50,-123l-81,-66l-4,-89l-116,-104l57,-105l-29,-39l-39,-14l-86,26l-76,-31l-126,58l-66,2l-40,56l-21,109l-62,107l-43,2l-72,-107l-286,41l-40,-36l-50,-139l-48,-51l-254,-157l-35,74l69,106l16,70l-46,95l20,135l-115,248l-5,138l-38,108l-120,110l-85,107l-59,119l-138,84l-244,30l-210,179l-88,18l-75,60l-144,-73l-154,-18l-46,-62l-99,-1l29,214l-31,62l-125,75l-11,50l-39,49l-185,-50l-89,19l-92,-21l-45,99l-100,10l-170,96l-31,77l-87,57l-179,73l-15,46l-31,51l-113,56l-79,4l-288,52l-26,162l-116,131l-127,15l-126,-38l-133,31l-30,196l-77,122l-5,83l150,122l140,187l-10,215l-40,92l-72,16l-76,-31l-169,14l-100,72l-97,-30l-243,-154l-95,-14l-69,32l-97,203l-91,306l-49,19l-115,-45l-112,37l-63,46l-211,-29l-23,14l-53,188l-115,259l-74,86l-182,138l-349,207l-351,110l-191,5l-158,-17l-130,-40l-262,33l-133,-37l-194,73l-96,-3l-324,-144l-145,15l-58,11l-159,-38l-266,-129l-411,-169l-67,-37l-445,-62l-423,-24l-403,12l-99,25l-194,79l-386,134l-251,168l-86,78l-126,155l-55,43l-82,75l-73,52l-209,18l-268,-15l-107,-52l-80,-127l-160,-106l-54,-50l-33,-101l-69,-113l-118,-68l-211,-58l-171,-4l-226,14l-155,61l-271,164l-67,54l-274,165l-134,43l-178,-138l11,-91l-23,-190l-58,-323l-1038,-406l-111,-161l-86,-33l-292,-37l-49,-36l-71,-130l-17,-76l-4,-74l110,-307l102,-200l128,-190l186,-218l171,-153l89,-137l101,-232l48,-266l-59,-267l-79,-148l-155,-144l-155,-122l-69,-130l-22,-133l21,-90l98,-131l186,-120l166,-58l501,-126l101,-36l135,-96l74,-91l54,-110l40,-184l-3,-170l-31,-130l-44,-500l20,-247l-3,-30l-165,-327l-150,-331l0,-1l-231,-504l-51,-228l46,-119l81,-79l17,-143l-81,-34l-71,-84l-198,92l-83,11l-100,-108l-24,-80l-133,15l-80,-50l-13,-137l-75,-96l-91,-29l-100,-131l-62,-17l-28,-145l-77,-80l-116,19l-142,-50l-76,-119l-198,-39l-25,-40l-143,-46l-29,-92l58,-243l-19,-102l-4,-65l-59,-36l-64,-136l-96,-19l-155,14l-5,-96l-38,-60l26,-106l4,-142l-95,-129l-87,-73l-65,20l-147,-5l-32,89l-7,57l-100,76l-191,13l-61,-104l50,-53l28,-149l-46,-58l-133,-89l63,-87l-8,-130l-67,-42l-179,-190l-136,131l-91,36l-79,98l-154,129l-56,82l-215,-16l-74,-206l-129,-38l-33,-38l-154,-33l-85,-143l-41,-190l16,-104l-76,-22l-189,52l-57,-76l-25,-209l-58,-116l-75,-82l-61,-16l-43,-83l-78,-66l-105,-47l-79,85l-149,-4l-75,-265l-97,-203l-119,-77l-6,-42l-194,1l-43,-68l-94,-25l46,-85l12,-230l-70,-109l-203,-34l-57,-82l-118,-58l-174,-16l-187,24l-81,-94l-47,-119l-175,-160l-119,-45l-73,-58l-85,-15l-129,23M-324313,-38455l-165,-100l2,-64l-98,-37l-81,-103l77,-41l159,92l64,8l106,-75l170,207h105l3,146l-55,64l-287,-97M-349568,-83788l-77,65l-15,-151l82,18l10,68Z" /></g></svg>